#!OML:ASF F:\VICON\USERDATA\INSTALL\rory3\rory3.ASF
:FULLY-SPECIFIED
:DEGREES
1201
root 0.237427 16.4494 -2.73793 -160.566 -2.29229 179.499
lowerback -0.433503 -0.277648 -2.01718
upperback -5.63992 -0.690362 1.13357
thorax -5.56222 -0.350667 2.34969
lowerneck -10.5152 1.32566 -1.05176
upperneck 28.6774 -0.379133 1.1279
head 10.9701 -0.944865 0.38996
rclavicle 5.36719e-015 6.55989e-015
rhumerus -16.0901 30.7899 -98.8253
rradius 94.3966
rwrist -63.1426
rhand 14.4946 4.10629
rfingers 7.12502
rthumb 39.3757 -21.3051
lclavicle 5.36719e-015 6.55989e-015
lhumerus -6.51452 -36.6266 89.2823
lradius 118.912
lwrist 63.0194
lhand 17.0682 15.1744
lfingers 7.12502
lthumb 41.7947 39.8328
rfemur -60.8487 8.37472 10.8231
rtibia 44.9075
rfoot -7.27362 -12.777
rtoes -9.32026
lfemur -24.4792 -4.4723 -29.7116
ltibia 34.7322
lfoot -43.7726 24.3797
ltoes 5.75705
1202
root 0.262049 16.4506 -2.78744 -160.321 -2.25274 179
lowerback -0.224688 -0.23365 -2.80342
upperback -5.62988 -0.649842 1.15141
thorax -5.67164 -0.28681 2.81079
lowerneck -10.413 1.10049 -1.2981
upperneck 27.3644 -0.373317 1.09787
head 10.4571 -0.881578 0.440002
rclavicle 2.73329e-015 1.15295e-014
rhumerus -16.5391 30.5855 -99.4623
rradius 93.6622
rwrist -66.9102
rhand 14.1332 4.03853
rfingers 7.12502
rthumb 39.0351 -21.4714
lclavicle 2.73329e-015 1.15295e-014
lhumerus -6.54501 -36.6679 90.5004
lradius 118.209
lwrist 64.4782
lhand 19.8315 14.3895
lfingers 7.12502
lthumb 44.3781 38.1299
rfemur -62.1769 9.40186 9.29098
rtibia 44.2906
rfoot -4.88369 -13.2584
rtoes -11.9889
lfemur -24.0944 -4.51711 -30.0939
ltibia 33.9069
lfoot -43.8682 23.8596
ltoes 6.61547
1203
root 0.200824 16.4726 -2.95814 -160.336 -3.25223 177.843
lowerback -1.51502 -0.589285 -2.75671
upperback -5.15416 -1.0733 0.798751
thorax -4.41027 -0.525389 2.40355
lowerneck -10.7183 0.811156 -1.53688
upperneck 26.327 -0.492274 1.08653
head 10.1384 -0.878063 0.477058
rclavicle 8.59744e-015 3.57812e-015
rhumerus -16.9334 30.3995 -100.104
rradius 92.7815
rwrist -70.7814
rhand 14.2832 3.45373
rfingers 7.12502
rthumb 39.1765 -22.0155
lclavicle 8.59744e-015 3.57812e-015
lhumerus -6.64413 -37.663 91.4571
lradius 118.142
lwrist 68.2412
lhand 19.0118 13.948
lfingers 7.12502
lthumb 43.6134 37.9736
rfemur -62.107 5.99197 9.60749
rtibia 44.0983
rfoot -2.76203 -10.1375
rtoes -13.4036
lfemur -22.4134 -4.39151 -31.5018
ltibia 32.8744
lfoot -43.1282 23.3536
ltoes 5.23985
1204
root 0.282484 16.4634 -2.92183 -160.047 -3.11274 178.115
lowerback 0.194503 -0.374041 -3.39536
upperback -5.61654 -0.859387 1.04548
thorax -5.88182 -0.353958 3.04881
lowerneck -10.6291 0.523098 -1.67617
upperneck 25.2214 -0.698813 1.15073
head 9.72696 -0.912524 0.511226
rclavicle 2.48481e-015 3.97569e-016
rhumerus -17.7082 30.1654 -100.96
rradius 91.7983
rwrist -74.8591
rhand 14.6555 2.64958
rfingers 7.12502
rthumb 39.5273 -22.7173
lclavicle 2.48481e-015 3.97569e-016
lhumerus -7.11721 -38.8624 92.5215
lradius 117.581
lwrist 71.3876
lhand 19.3953 12.845
lfingers 7.12502
lthumb 43.9714 36.7386
rfemur -63.9426 9.46294 7.51836
rtibia 43.5915
rfoot -2.73873 -13.6115
rtoes -5.24765
lfemur -22.8866 -4.34794 -30.7366
ltibia 32.2427
lfoot -42.5442 23.5882
ltoes 5.63046
1205
root 0.276758 16.4747 -3.01656 -159.899 -3.75841 177.899
lowerback 0.0682341 -0.518176 -3.22133
upperback -5.66761 -1.04937 1.04669
thorax -5.84996 -0.459686 2.96036
lowerneck -10.2743 0.347024 -1.78109
upperneck 24.051 -0.768874 1.16383
head 9.24784 -0.896129 0.536401
rclavicle 5.06901e-015 6.75868e-015
rhumerus -18.7055 30.4443 -101.846
rradius 90.7279
rwrist -79.3598
rhand 14.5126 2.36398
rfingers 7.12502
rthumb 39.3927 -23.0424
lclavicle 5.06901e-015 6.75868e-015
lhumerus -8.07229 -40.0081 93.8741
lradius 117.86
lwrist 76.1883
lhand 16.6947 13.9982
lfingers 7.12502
lthumb 41.4444 38.7717
rfemur -64.5144 8.60928 7.61765
rtibia 43.4329
rfoot -2.18175 -13.6577
rtoes -2.60278
lfemur -22.1546 -4.18431 -30.8559
ltibia 31.4432
lfoot -41.9028 23.2805
ltoes 4.83017
